<mxfile host="Electron" modified="2023-12-04T08:12:24.891Z" agent="Mozilla/5.0 (X11; Linux x86_64) AppleWebKit/537.36 (KHTML, like Gecko) draw.io/21.2.8 Chrome/116.0.5845.228 Electron/26.3.0 Safari/537.36" etag="npnLt3UOtwnQa2Y7HmYP" version="21.2.8" type="device">
  <diagram name="Page-1" id="1rrBglaB3LZoGl5ZTGws">
    <mxGraphModel dx="276" dy="174" grid="1" gridSize="10" guides="0" tooltips="1" connect="1" arrows="1" fold="1" page="1" pageScale="1" pageWidth="850" pageHeight="1100" math="0" shadow="0">
      <root>
        <mxCell id="0" />
        <mxCell id="1" parent="0" />
        <mxCell id="PWlss-yqlZrvm8QFaMVy-6" value="" style="rounded=0;whiteSpace=wrap;html=1;fillColor=#ffe6cc;strokeColor=none;" parent="1" vertex="1">
          <mxGeometry x="174" y="206" width="133" height="14" as="geometry" />
        </mxCell>
        <mxCell id="PWlss-yqlZrvm8QFaMVy-1" value="" style="rounded=0;whiteSpace=wrap;html=1;fillColor=#d5e8d4;strokeColor=none;" parent="1" vertex="1">
          <mxGeometry x="80" y="134" width="90" height="28" as="geometry" />
        </mxCell>
        <mxCell id="D6Ms4XIPVmdKDvfIZBXO-1" value="add 64(%rax,%rbx,4), %rcx" style="rounded=0;whiteSpace=wrap;html=1;fontFamily=mono;align=left;" parent="1" vertex="1">
          <mxGeometry x="80" y="100" width="190" height="20" as="geometry" />
        </mxCell>
        <mxCell id="D6Ms4XIPVmdKDvfIZBXO-3" value="客户代码片段&amp;nbsp;&lt;font style=&quot;font-size: 10px;&quot;&gt;(重复运行多次)&lt;/font&gt;" style="text;html=1;strokeColor=none;fillColor=none;align=center;verticalAlign=middle;whiteSpace=wrap;rounded=0;" parent="1" vertex="1">
          <mxGeometry x="80" y="80" width="190" height="20" as="geometry" />
        </mxCell>
        <mxCell id="D6Ms4XIPVmdKDvfIZBXO-4" value="膨胀" style="text;html=1;strokeColor=none;fillColor=none;align=center;verticalAlign=middle;whiteSpace=wrap;rounded=0;" parent="1" vertex="1">
          <mxGeometry x="350" y="80" width="50" height="20" as="geometry" />
        </mxCell>
        <mxCell id="D6Ms4XIPVmdKDvfIZBXO-6" value="" style="endArrow=classic;html=1;rounded=0;" parent="1" source="D6Ms4XIPVmdKDvfIZBXO-1" target="D6Ms4XIPVmdKDvfIZBXO-8" edge="1">
          <mxGeometry width="50" height="50" relative="1" as="geometry">
            <mxPoint x="330" y="150" as="sourcePoint" />
            <mxPoint x="370" y="110" as="targetPoint" />
          </mxGeometry>
        </mxCell>
        <mxCell id="D6Ms4XIPVmdKDvfIZBXO-7" value="&lt;font style=&quot;font-size: 10px;&quot; face=&quot;mono&quot;&gt;perf stat&lt;br style=&quot;border-color: var(--border-color);&quot;&gt;翻译运行微测试&lt;br&gt;&lt;/font&gt;" style="text;html=1;strokeColor=none;fillColor=none;align=center;verticalAlign=middle;whiteSpace=wrap;rounded=0;" parent="1" vertex="1">
          <mxGeometry x="270" y="95" width="90" height="30" as="geometry" />
        </mxCell>
        <mxCell id="D6Ms4XIPVmdKDvfIZBXO-8" value="2" style="text;html=1;strokeColor=none;fillColor=none;align=center;verticalAlign=middle;whiteSpace=wrap;rounded=0;" parent="1" vertex="1">
          <mxGeometry x="370" y="100" width="10" height="20" as="geometry" />
        </mxCell>
        <mxCell id="D6Ms4XIPVmdKDvfIZBXO-10" value="" style="endArrow=classic;html=1;rounded=0;" parent="1" source="D6Ms4XIPVmdKDvfIZBXO-9" target="D6Ms4XIPVmdKDvfIZBXO-12" edge="1">
          <mxGeometry width="50" height="50" relative="1" as="geometry">
            <mxPoint x="330" y="180" as="sourcePoint" />
            <mxPoint x="370" y="140" as="targetPoint" />
          </mxGeometry>
        </mxCell>
        <mxCell id="D6Ms4XIPVmdKDvfIZBXO-11" value="&lt;font style=&quot;font-size: 10px;&quot; face=&quot;mono&quot;&gt;perf stat&lt;br style=&quot;border-color: var(--border-color);&quot;&gt;翻译运行微测试&lt;br&gt;&lt;/font&gt;" style="text;html=1;strokeColor=none;fillColor=none;align=center;verticalAlign=middle;whiteSpace=wrap;rounded=0;" parent="1" vertex="1">
          <mxGeometry x="270" y="140" width="90" height="30" as="geometry" />
        </mxCell>
        <mxCell id="D6Ms4XIPVmdKDvfIZBXO-12" value="7" style="text;html=1;strokeColor=none;fillColor=none;align=center;verticalAlign=middle;whiteSpace=wrap;rounded=0;" parent="1" vertex="1">
          <mxGeometry x="364" y="140" width="10" height="30" as="geometry" />
        </mxCell>
        <mxCell id="D6Ms4XIPVmdKDvfIZBXO-13" value="&lt;font face=&quot;mono&quot;&gt;访存指令的语义:&lt;br&gt;&amp;nbsp; 读取内存地址(%rax + %rbx*4 + 64)的数据&lt;/font&gt;" style="text;html=1;strokeColor=none;fillColor=none;align=left;verticalAlign=middle;whiteSpace=wrap;rounded=0;" parent="1" vertex="1">
          <mxGeometry x="80" y="190" width="310" height="30" as="geometry" />
        </mxCell>
        <mxCell id="PWlss-yqlZrvm8QFaMVy-2" value="" style="rounded=0;whiteSpace=wrap;html=1;fillColor=#ffe6cc;strokeColor=none;" parent="1" vertex="1">
          <mxGeometry x="110" y="162" width="110" height="16" as="geometry" />
        </mxCell>
        <mxCell id="PWlss-yqlZrvm8QFaMVy-4" value="1" style="rounded=0;whiteSpace=wrap;html=1;fillColor=#d5e8d4;strokeColor=none;" parent="1" vertex="1">
          <mxGeometry x="380" y="133" width="10" height="14" as="geometry" />
        </mxCell>
        <mxCell id="PWlss-yqlZrvm8QFaMVy-5" value="" style="rounded=0;whiteSpace=wrap;html=1;fillColor=#ffe6cc;strokeColor=none;" parent="1" vertex="1">
          <mxGeometry x="385" y="164" width="15" height="12" as="geometry" />
        </mxCell>
        <mxCell id="D6Ms4XIPVmdKDvfIZBXO-9" value="sub $1, %rax&lt;br&gt;add $1, %rax&lt;br&gt;add 64(%rax,%rbx,4), %rcx" style="rounded=0;whiteSpace=wrap;html=1;fontFamily=mono;align=left;fillColor=none;" parent="1" vertex="1">
          <mxGeometry x="80" y="130" width="190" height="50" as="geometry" />
        </mxCell>
        <mxCell id="PWlss-yqlZrvm8QFaMVy-8" value="" style="shape=curlyBracket;whiteSpace=wrap;html=1;rounded=1;labelPosition=left;verticalLabelPosition=middle;align=right;verticalAlign=middle;" parent="1" vertex="1">
          <mxGeometry x="373" y="140" width="5" height="30" as="geometry" />
        </mxCell>
        <mxCell id="PWlss-yqlZrvm8QFaMVy-9" value="1" style="rounded=0;whiteSpace=wrap;html=1;fillColor=#d5e8d4;strokeColor=none;" parent="1" vertex="1">
          <mxGeometry x="380" y="147" width="10" height="14" as="geometry" />
        </mxCell>
        <mxCell id="PWlss-yqlZrvm8QFaMVy-10" value="2+3" style="rounded=0;whiteSpace=wrap;html=1;fillColor=none;strokeColor=none;" parent="1" vertex="1">
          <mxGeometry x="377" y="164" width="23" height="12" as="geometry" />
        </mxCell>
      </root>
    </mxGraphModel>
  </diagram>
</mxfile>
